<svg width="41" height="41" viewBox="0 0 41 41" fill="none" xmlns="http://www.w3.org/2000/svg">
<circle cx="20.3732" cy="20.3732" r="20.3732" fill="#8E9775"/>
<path d="M14.5217 26.0001V15.5361H20.8418V17.1041H16.3778V20.0641H20.1858V21.6321H16.3778V26.0001H14.5217ZM23.0055 26.0001V18.1441H24.5255L24.6535 19.5361H24.7175C24.9948 19.0241 25.3308 18.6348 25.7255 18.3681C26.1202 18.0908 26.5255 17.9521 26.9415 17.9521C27.3148 17.9521 27.6135 18.0055 27.8375 18.1121L27.5175 19.7121C27.3788 19.6695 27.2508 19.6375 27.1335 19.6161C27.0162 19.5948 26.8722 19.5841 26.7015 19.5841C26.3922 19.5841 26.0668 19.7068 25.7255 19.9521C25.3842 20.1868 25.0908 20.6028 24.8455 21.2001V26.0001H23.0055Z" fill="#FAF2DA"/>
</svg>
