<svg width="41" height="41" viewBox="0 0 41 41" fill="none" xmlns="http://www.w3.org/2000/svg">
<path d="M14.6494 25.0623V14.5983H20.9694V16.1663H16.5054V19.1263H20.3134V20.6943H16.5054V25.0623H14.6494ZM23.1331 25.0623V17.2063H24.6531L24.7811 18.5983H24.8451C25.1225 18.0863 25.4585 17.6969 25.8531 17.4303C26.2478 17.1529 26.6531 17.0143 27.0691 17.0143C27.4425 17.0143 27.7411 17.0676 27.9651 17.1743L27.6451 18.7743C27.5065 18.7316 27.3785 18.6996 27.2611 18.6783C27.1438 18.6569 26.9998 18.6463 26.8291 18.6463C26.5198 18.6463 26.1945 18.7689 25.8531 19.0143C25.5118 19.2489 25.2185 19.6649 24.9731 20.2623V25.0623H23.1331Z" fill="#4A503D"/>
<circle cx="20.5" cy="20.5" r="20" stroke="#FAF2DA"/>
</svg>
