<svg width="41" height="41" viewBox="0 0 41 41" fill="none" xmlns="http://www.w3.org/2000/svg">
<circle cx="20.3732" cy="20.3732" r="20.3732" fill="#8E9775"/>
<path d="M10.5764 26.0001V15.5361H12.6724L14.5284 20.6561C14.6458 20.9868 14.7578 21.3281 14.8644 21.6801C14.9818 22.0215 15.0938 22.3628 15.2004 22.7041H15.2644C15.3818 22.3628 15.4938 22.0215 15.6004 21.6801C15.7071 21.3281 15.8138 20.9868 15.9204 20.6561L17.7284 15.5361H19.8404V26.0001H18.1284V21.2161C18.1284 20.8855 18.1391 20.5281 18.1604 20.1441C18.1924 19.7495 18.2244 19.3548 18.2564 18.9601C18.2991 18.5655 18.3364 18.2081 18.3684 17.8881H18.3044L17.4564 20.3201L15.7444 25.0241H14.6404L12.9124 20.3201L12.0804 17.8881H12.0164C12.0484 18.2081 12.0804 18.5655 12.1124 18.9601C12.1551 19.3548 12.1871 19.7495 12.2084 20.1441C12.2404 20.5281 12.2564 20.8855 12.2564 21.2161V26.0001H10.5764ZM26.3543 26.1921C25.7036 26.1921 25.0956 26.0321 24.5303 25.7121C23.965 25.3815 23.5063 24.9121 23.1543 24.3041C22.8023 23.6855 22.6263 22.9441 22.6263 22.0801C22.6263 21.2055 22.8023 20.4641 23.1543 19.8561C23.5063 19.2375 23.965 18.7681 24.5303 18.4481C25.0956 18.1175 25.7036 17.9521 26.3543 17.9521C27.0156 17.9521 27.629 18.1175 28.1943 18.4481C28.7596 18.7681 29.2183 19.2375 29.5703 19.8561C29.9223 20.4641 30.0983 21.2055 30.0983 22.0801C30.0983 22.9441 29.9223 23.6855 29.5703 24.3041C29.2183 24.9121 28.7596 25.3815 28.1943 25.7121C27.629 26.0321 27.0156 26.1921 26.3543 26.1921ZM26.3543 24.6881C26.9303 24.6881 27.3836 24.4481 27.7143 23.9681C28.045 23.4881 28.2103 22.8588 28.2103 22.0801C28.2103 21.2908 28.045 20.6561 27.7143 20.1761C27.3836 19.6961 26.9303 19.4561 26.3543 19.4561C25.7783 19.4561 25.325 19.6961 24.9943 20.1761C24.6743 20.6561 24.5143 21.2908 24.5143 22.0801C24.5143 22.8588 24.6743 23.4881 24.9943 23.9681C25.325 24.4481 25.7783 24.6881 26.3543 24.6881Z" fill="#FAF2DA"/>
</svg>
