<svg width="42" height="41" viewBox="0 0 42 41" fill="none" xmlns="http://www.w3.org/2000/svg">
<circle cx="20.8732" cy="20.3732" r="19.8732" stroke="#FAF2DA"/>
<path d="M11.0764 26.0001V15.5361H13.1724L15.0284 20.6561C15.1458 20.9868 15.2578 21.3281 15.3644 21.6801C15.4818 22.0215 15.5938 22.3628 15.7004 22.7041H15.7644C15.8818 22.3628 15.9938 22.0215 16.1004 21.6801C16.2071 21.3281 16.3138 20.9868 16.4204 20.6561L18.2284 15.5361H20.3404V26.0001H18.6284V21.2161C18.6284 20.8855 18.6391 20.5281 18.6604 20.1441C18.6924 19.7495 18.7244 19.3548 18.7564 18.9601C18.7991 18.5655 18.8364 18.2081 18.8684 17.8881H18.8044L17.9564 20.3201L16.2444 25.0241H15.1404L13.4124 20.3201L12.5804 17.8881H12.5164C12.5484 18.2081 12.5804 18.5655 12.6124 18.9601C12.6551 19.3548 12.6871 19.7495 12.7084 20.1441C12.7404 20.5281 12.7564 20.8855 12.7564 21.2161V26.0001H11.0764ZM26.8543 26.1921C26.2036 26.1921 25.5956 26.0321 25.0303 25.7121C24.465 25.3815 24.0063 24.9121 23.6543 24.3041C23.3023 23.6855 23.1263 22.9441 23.1263 22.0801C23.1263 21.2055 23.3023 20.4641 23.6543 19.8561C24.0063 19.2375 24.465 18.7681 25.0303 18.4481C25.5956 18.1175 26.2036 17.9521 26.8543 17.9521C27.5156 17.9521 28.129 18.1175 28.6943 18.4481C29.2596 18.7681 29.7183 19.2375 30.0703 19.8561C30.4223 20.4641 30.5983 21.2055 30.5983 22.0801C30.5983 22.9441 30.4223 23.6855 30.0703 24.3041C29.7183 24.9121 29.2596 25.3815 28.6943 25.7121C28.129 26.0321 27.5156 26.1921 26.8543 26.1921ZM26.8543 24.6881C27.4303 24.6881 27.8836 24.4481 28.2143 23.9681C28.545 23.4881 28.7103 22.8588 28.7103 22.0801C28.7103 21.2908 28.545 20.6561 28.2143 20.1761C27.8836 19.6961 27.4303 19.4561 26.8543 19.4561C26.2783 19.4561 25.825 19.6961 25.4943 20.1761C25.1743 20.6561 25.0143 21.2908 25.0143 22.0801C25.0143 22.8588 25.1743 23.4881 25.4943 23.9681C25.825 24.4481 26.2783 24.6881 26.8543 24.6881Z" fill="#4A503D"/>
</svg>
