<svg width="41" height="41" viewBox="0 0 41 41" fill="none" xmlns="http://www.w3.org/2000/svg">
<circle cx="20.3732" cy="20.3732" r="20.3732" fill="#8E9775"/>
<path d="M15.4996 26.1921C14.7956 26.1921 14.113 26.0588 13.4516 25.7921C12.801 25.5255 12.225 25.1468 11.7236 24.6561L12.8116 23.3921C13.185 23.7441 13.6116 24.0321 14.0916 24.2561C14.5716 24.4695 15.0516 24.5761 15.5316 24.5761C16.129 24.5761 16.5823 24.4535 16.8916 24.2081C17.201 23.9628 17.3556 23.6375 17.3556 23.2321C17.3556 22.7948 17.201 22.4801 16.8916 22.2881C16.593 22.0961 16.209 21.8988 15.7396 21.6961L14.2996 21.0721C13.9583 20.9228 13.6223 20.7308 13.2916 20.4961C12.9716 20.2615 12.705 19.9628 12.4916 19.6001C12.289 19.2375 12.1876 18.8001 12.1876 18.2881C12.1876 17.7335 12.337 17.2375 12.6356 16.8001C12.945 16.3521 13.361 16.0001 13.8836 15.7441C14.417 15.4775 15.025 15.3441 15.7076 15.3441C16.3156 15.3441 16.9023 15.4668 17.4676 15.7121C18.033 15.9468 18.5183 16.2668 18.9236 16.6721L17.9796 17.8561C17.649 17.5788 17.297 17.3601 16.9236 17.2001C16.561 17.0401 16.1556 16.9601 15.7076 16.9601C15.217 16.9601 14.817 17.0721 14.5076 17.2961C14.209 17.5095 14.0596 17.8081 14.0596 18.1921C14.0596 18.4588 14.1343 18.6828 14.2836 18.8641C14.4436 19.0348 14.6516 19.1841 14.9076 19.3121C15.1636 19.4295 15.4356 19.5468 15.7236 19.6641L17.1476 20.2561C17.7663 20.5228 18.273 20.8748 18.6676 21.3121C19.0623 21.7388 19.2596 22.3308 19.2596 23.0881C19.2596 23.6535 19.1103 24.1708 18.8116 24.6401C18.513 25.1095 18.081 25.4881 17.5156 25.7761C16.961 26.0535 16.289 26.1921 15.4996 26.1921ZM23.7064 26.1921C23.0237 26.1921 22.4637 25.9788 22.0264 25.5521C21.5997 25.1255 21.3864 24.5708 21.3864 23.8881C21.3864 23.0455 21.7544 22.3948 22.4904 21.9361C23.2264 21.4668 24.3997 21.1468 26.0104 20.9761C25.9997 20.5601 25.8877 20.2028 25.6744 19.9041C25.4717 19.5948 25.1037 19.4401 24.5704 19.4401C24.1864 19.4401 23.8077 19.5148 23.4344 19.6641C23.0717 19.8135 22.7144 19.9948 22.3624 20.2081L21.6904 18.9761C22.1277 18.6988 22.6184 18.4588 23.1624 18.2561C23.717 18.0535 24.3037 17.9521 24.9224 17.9521C25.9037 17.9521 26.6344 18.2455 27.1144 18.8321C27.605 19.4081 27.8504 20.2455 27.8504 21.3441V26.0001H26.3304L26.2024 25.1361H26.1384C25.7864 25.4348 25.4077 25.6855 25.0024 25.8881C24.6077 26.0908 24.1757 26.1921 23.7064 26.1921ZM24.2984 24.7521C24.6184 24.7521 24.9064 24.6775 25.1624 24.5281C25.429 24.3681 25.7117 24.1548 26.0104 23.8881V22.1281C24.9437 22.2668 24.2024 22.4748 23.7864 22.7521C23.3704 23.0188 23.1624 23.3495 23.1624 23.7441C23.1624 24.0961 23.269 24.3521 23.4824 24.5121C23.6957 24.6721 23.9677 24.7521 24.2984 24.7521Z" fill="#FAF2DA"/>
</svg>
