<svg width="41" height="41" viewBox="0 0 41 41" fill="none" xmlns="http://www.w3.org/2000/svg">
<path d="M16.1273 25.2543C15.4233 25.2543 14.7406 25.1209 14.0793 24.8543C13.4286 24.5876 12.8526 24.2089 12.3513 23.7183L13.4393 22.4543C13.8126 22.8063 14.2393 23.0943 14.7193 23.3183C15.1993 23.5316 15.6793 23.6383 16.1593 23.6383C16.7566 23.6383 17.2099 23.5156 17.5193 23.2703C17.8286 23.0249 17.9833 22.6996 17.9833 22.2943C17.9833 21.8569 17.8286 21.5423 17.5193 21.3503C17.2206 21.1583 16.8366 20.9609 16.3673 20.7583L14.9273 20.1343C14.5859 19.9849 14.2499 19.7929 13.9193 19.5583C13.5993 19.3236 13.3326 19.0249 13.1193 18.6623C12.9166 18.2996 12.8153 17.8623 12.8153 17.3503C12.8153 16.7956 12.9646 16.2996 13.2633 15.8623C13.5726 15.4143 13.9886 15.0623 14.5113 14.8063C15.0446 14.5396 15.6526 14.4063 16.3353 14.4063C16.9433 14.4063 17.5299 14.5289 18.0953 14.7743C18.6606 15.0089 19.1459 15.3289 19.5513 15.7343L18.6073 16.9183C18.2766 16.6409 17.9246 16.4223 17.5513 16.2623C17.1886 16.1023 16.7833 16.0223 16.3353 16.0223C15.8446 16.0223 15.4446 16.1343 15.1353 16.3583C14.8366 16.5716 14.6873 16.8703 14.6873 17.2543C14.6873 17.5209 14.7619 17.7449 14.9113 17.9263C15.0713 18.0969 15.2793 18.2463 15.5353 18.3743C15.7913 18.4916 16.0633 18.6089 16.3513 18.7263L17.7753 19.3183C18.3939 19.5849 18.9006 19.9369 19.2953 20.3743C19.6899 20.8009 19.8873 21.3929 19.8873 22.1503C19.8873 22.7156 19.7379 23.2329 19.4393 23.7023C19.1406 24.1716 18.7086 24.5503 18.1433 24.8383C17.5886 25.1156 16.9166 25.2543 16.1273 25.2543ZM24.334 25.2543C23.6513 25.2543 23.0913 25.0409 22.654 24.6143C22.2273 24.1876 22.014 23.6329 22.014 22.9503C22.014 22.1076 22.382 21.4569 23.118 20.9983C23.854 20.5289 25.0273 20.2089 26.638 20.0383C26.6273 19.6223 26.5153 19.2649 26.302 18.9663C26.0993 18.6569 25.7313 18.5023 25.198 18.5023C24.814 18.5023 24.4353 18.5769 24.062 18.7263C23.6993 18.8756 23.342 19.0569 22.99 19.2703L22.318 18.0383C22.7553 17.7609 23.246 17.5209 23.79 17.3183C24.3447 17.1156 24.9313 17.0143 25.55 17.0143C26.5313 17.0143 27.262 17.3076 27.742 17.8943C28.2327 18.4703 28.478 19.3076 28.478 20.4063V25.0623H26.958L26.83 24.1983H26.766C26.414 24.4969 26.0353 24.7476 25.63 24.9503C25.2353 25.1529 24.8033 25.2543 24.334 25.2543ZM24.926 23.8143C25.246 23.8143 25.534 23.7396 25.79 23.5903C26.0567 23.4303 26.3393 23.2169 26.638 22.9503V21.1903C25.5713 21.3289 24.83 21.5369 24.414 21.8143C23.998 22.0809 23.79 22.4116 23.79 22.8063C23.79 23.1583 23.8967 23.4143 24.11 23.5743C24.3233 23.7343 24.5953 23.8143 24.926 23.8143Z" fill="#4A503D"/>
<circle cx="20.5" cy="20.5" r="20" stroke="#FAF2DA"/>
</svg>
