<svg width="41" height="41" viewBox="0 0 41 41" fill="none" xmlns="http://www.w3.org/2000/svg">
<circle cx="20.3732" cy="20.3732" r="20.3732" fill="#8E9775"/>
<path d="M15.6793 26.1921C14.9753 26.1921 14.2926 26.0588 13.6313 25.7921C12.9806 25.5255 12.4046 25.1468 11.9033 24.6561L12.9913 23.3921C13.3646 23.7441 13.7913 24.0321 14.2713 24.2561C14.7513 24.4695 15.2313 24.5761 15.7113 24.5761C16.3086 24.5761 16.762 24.4535 17.0713 24.2081C17.3806 23.9628 17.5353 23.6375 17.5353 23.2321C17.5353 22.7948 17.3806 22.4801 17.0713 22.2881C16.7726 22.0961 16.3886 21.8988 15.9193 21.6961L14.4793 21.0721C14.138 20.9228 13.802 20.7308 13.4713 20.4961C13.1513 20.2615 12.8846 19.9628 12.6713 19.6001C12.4686 19.2375 12.3673 18.8001 12.3673 18.2881C12.3673 17.7335 12.5166 17.2375 12.8153 16.8001C13.1246 16.3521 13.5406 16.0001 14.0633 15.7441C14.5966 15.4775 15.2046 15.3441 15.8873 15.3441C16.4953 15.3441 17.082 15.4668 17.6473 15.7121C18.2126 15.9468 18.698 16.2668 19.1033 16.6721L18.1593 17.8561C17.8286 17.5788 17.4766 17.3601 17.1033 17.2001C16.7406 17.0401 16.3353 16.9601 15.8873 16.9601C15.3966 16.9601 14.9966 17.0721 14.6873 17.2961C14.3886 17.5095 14.2393 17.8081 14.2393 18.1921C14.2393 18.4588 14.314 18.6828 14.4633 18.8641C14.6233 19.0348 14.8313 19.1841 15.0873 19.3121C15.3433 19.4295 15.6153 19.5468 15.9033 19.6641L17.3273 20.2561C17.946 20.5228 18.4526 20.8748 18.8473 21.3121C19.242 21.7388 19.4393 22.3308 19.4393 23.0881C19.4393 23.6535 19.29 24.1708 18.9913 24.6401C18.6926 25.1095 18.2606 25.4881 17.6953 25.7761C17.1406 26.0535 16.4686 26.1921 15.6793 26.1921ZM24.3181 26.1921C23.4754 26.1921 22.8621 25.9201 22.4781 25.3761C22.0941 24.8321 21.9021 24.0641 21.9021 23.0721V18.1441H23.7421V22.8321C23.7421 23.4828 23.8381 23.9415 24.0301 24.2081C24.2221 24.4748 24.5314 24.6081 24.9581 24.6081C25.2994 24.6081 25.5981 24.5228 25.8541 24.3521C26.1207 24.1815 26.4034 23.9041 26.7021 23.5201V18.1441H28.5421V26.0001H27.0381L26.8941 24.8481H26.8461C26.5047 25.2535 26.1314 25.5788 25.7261 25.8241C25.3207 26.0695 24.8514 26.1921 24.3181 26.1921Z" fill="#FAF2DA"/>
</svg>
