<svg width="41" height="41" viewBox="0 0 41 41" fill="none" xmlns="http://www.w3.org/2000/svg">
<path d="M15.8069 25.2543C15.1029 25.2543 14.4203 25.1209 13.7589 24.8543C13.1083 24.5876 12.5323 24.2089 12.0309 23.7183L13.1189 22.4543C13.4923 22.8063 13.9189 23.0943 14.3989 23.3183C14.8789 23.5316 15.3589 23.6383 15.8389 23.6383C16.4363 23.6383 16.8896 23.5156 17.1989 23.2703C17.5083 23.0249 17.6629 22.6996 17.6629 22.2943C17.6629 21.8569 17.5083 21.5423 17.1989 21.3503C16.9003 21.1583 16.5163 20.9609 16.0469 20.7583L14.6069 20.1343C14.2656 19.9849 13.9296 19.7929 13.5989 19.5583C13.2789 19.3236 13.0123 19.0249 12.7989 18.6623C12.5963 18.2996 12.4949 17.8623 12.4949 17.3503C12.4949 16.7956 12.6443 16.2996 12.9429 15.8623C13.2523 15.4143 13.6683 15.0623 14.1909 14.8063C14.7243 14.5396 15.3323 14.4063 16.0149 14.4063C16.6229 14.4063 17.2096 14.5289 17.7749 14.7743C18.3403 15.0089 18.8256 15.3289 19.2309 15.7343L18.2869 16.9183C17.9563 16.6409 17.6043 16.4223 17.2309 16.2623C16.8683 16.1023 16.4629 16.0223 16.0149 16.0223C15.5243 16.0223 15.1243 16.1343 14.8149 16.3583C14.5163 16.5716 14.3669 16.8703 14.3669 17.2543C14.3669 17.5209 14.4416 17.7449 14.5909 17.9263C14.7509 18.0969 14.9589 18.2463 15.2149 18.3743C15.4709 18.4916 15.7429 18.6089 16.0309 18.7263L17.4549 19.3183C18.0736 19.5849 18.5803 19.9369 18.9749 20.3743C19.3696 20.8009 19.5669 21.3929 19.5669 22.1503C19.5669 22.7156 19.4176 23.2329 19.1189 23.7023C18.8203 24.1716 18.3883 24.5503 17.8229 24.8383C17.2683 25.1156 16.5963 25.2543 15.8069 25.2543ZM24.4457 25.2543C23.603 25.2543 22.9897 24.9823 22.6057 24.4383C22.2217 23.8943 22.0297 23.1263 22.0297 22.1343V17.2063H23.8697V21.8943C23.8697 22.5449 23.9657 23.0036 24.1577 23.2703C24.3497 23.5369 24.659 23.6703 25.0857 23.6703C25.427 23.6703 25.7257 23.5849 25.9817 23.4143C26.2484 23.2436 26.531 22.9663 26.8297 22.5823V17.2063H28.6697V25.0623H27.1657L27.0217 23.9103H26.9737C26.6324 24.3156 26.259 24.6409 25.8537 24.8863C25.4484 25.1316 24.979 25.2543 24.4457 25.2543Z" fill="#4A503D"/>
<circle cx="20.5" cy="20.5" r="20" stroke="#FAF2DA"/>
</svg>
