<svg width="41" height="41" viewBox="0 0 41 41" fill="none" xmlns="http://www.w3.org/2000/svg">
<circle cx="20.3732" cy="20.3732" r="20.3732" fill="#8E9775"/>
<path d="M14.7119 26.0001V17.1041H11.6879V15.5361H19.5919V17.1041H16.5679V26.0001H14.7119ZM21.9743 26.0001V14.7041H23.8143V17.6161L23.7503 19.1361C24.0809 18.8268 24.4489 18.5548 24.8543 18.3201C25.2596 18.0748 25.7289 17.9521 26.2623 17.9521C27.1049 17.9521 27.7183 18.2241 28.1023 18.7681C28.4863 19.3121 28.6783 20.0801 28.6783 21.0721V26.0001H26.8383V21.3121C26.8383 20.6615 26.7423 20.2028 26.5503 19.9361C26.3583 19.6695 26.0436 19.5361 25.6063 19.5361C25.2649 19.5361 24.9609 19.6215 24.6943 19.7921C24.4383 19.9521 24.1449 20.1921 23.8143 20.5121V26.0001H21.9743Z" fill="#FAF2DA"/>
</svg>
