<svg width="41" height="41" viewBox="0 0 41 41" fill="none" xmlns="http://www.w3.org/2000/svg">
<path d="M14.7119 25V16.104H11.6879V14.536H19.5919V16.104H16.5679V25H14.7119ZM21.9743 25V13.704H23.8143V16.616L23.7503 18.136C24.0809 17.8267 24.4489 17.5547 24.8543 17.32C25.2596 17.0747 25.7289 16.952 26.2623 16.952C27.1049 16.952 27.7183 17.224 28.1023 17.768C28.4863 18.312 28.6783 19.08 28.6783 20.072V25H26.8383V20.312C26.8383 19.6613 26.7423 19.2027 26.5503 18.936C26.3583 18.6693 26.0436 18.536 25.6063 18.536C25.2649 18.536 24.9609 18.6213 24.6943 18.792C24.4383 18.952 24.1449 19.192 23.8143 19.512V25H21.9743Z" fill="#4A503D"/>
<circle cx="20.3732" cy="20.3732" r="19.8732" stroke="#FAF2DA"/>
</svg>
