<svg width="41" height="41" viewBox="0 0 41 41" fill="none" xmlns="http://www.w3.org/2000/svg">
<circle cx="20.3732" cy="20.3732" r="20.3732" fill="#8E9775"/>
<path d="M14.5791 26.0001V17.1041H11.5551V15.5361H19.4591V17.1041H16.4351V26.0001H14.5791ZM23.4743 26.1921C22.6316 26.1921 22.0183 25.9201 21.6343 25.3761C21.2503 24.8321 21.0583 24.0641 21.0583 23.0721V18.1441H22.8983V22.8321C22.8983 23.4828 22.9943 23.9415 23.1863 24.2081C23.3783 24.4748 23.6876 24.6081 24.1143 24.6081C24.4556 24.6081 24.7543 24.5228 25.0103 24.3521C25.277 24.1815 25.5596 23.9041 25.8583 23.5201V18.1441H27.6983V26.0001H26.1943L26.0503 24.8481H26.0023C25.661 25.2535 25.2876 25.5788 24.8823 25.8241C24.477 26.0695 24.0076 26.1921 23.4743 26.1921Z" fill="#FAF2DA"/>
</svg>
