<svg width="41" height="41" viewBox="0 0 41 41" fill="none" xmlns="http://www.w3.org/2000/svg">
<path d="M14.5791 25V16.104H11.5551V14.536H19.4591V16.104H16.4351V25H14.5791ZM23.4743 25.192C22.6316 25.192 22.0183 24.92 21.6343 24.376C21.2503 23.832 21.0583 23.064 21.0583 22.072V17.144H22.8983V21.832C22.8983 22.4827 22.9943 22.9413 23.1863 23.208C23.3783 23.4747 23.6876 23.608 24.1143 23.608C24.4556 23.608 24.7543 23.5227 25.0103 23.352C25.277 23.1813 25.5596 22.904 25.8583 22.52V17.144H27.6983V25H26.1943L26.0503 23.848H26.0023C25.661 24.2533 25.2876 24.5787 24.8823 24.824C24.477 25.0693 24.0076 25.192 23.4743 25.192Z" fill="#4A503D"/>
<circle cx="20.3732" cy="20.3732" r="19.8732" stroke="#FAF2DA"/>
</svg>
