<svg width="42" height="41" viewBox="0 0 42 41" fill="none" xmlns="http://www.w3.org/2000/svg">
<circle cx="20.8732" cy="20.3732" r="20.3732" fill="#8E9775"/>
<path d="M12.0149 26.0001L9.93488 15.5361H11.8389L12.7509 20.8161C12.8362 21.3708 12.9215 21.9308 13.0069 22.4961C13.1029 23.0508 13.1882 23.6055 13.2629 24.1601H13.3269C13.4442 23.6055 13.5562 23.0508 13.6629 22.4961C13.7802 21.9308 13.8975 21.3708 14.0149 20.8161L15.2949 15.5361H16.9109L18.1909 20.8161C18.3082 21.3601 18.4255 21.9148 18.5429 22.4801C18.6602 23.0348 18.7775 23.5948 18.8949 24.1601H18.9589C19.0442 23.5948 19.1295 23.0348 19.2149 22.4801C19.3002 21.9255 19.3802 21.3708 19.4549 20.8161L20.3669 15.5361H22.1429L20.1429 26.0001H17.8389L16.5429 20.4961C16.4575 20.0908 16.3722 19.6855 16.2869 19.2801C16.2122 18.8748 16.1429 18.4748 16.0789 18.0801H16.0149C15.9402 18.4748 15.8602 18.8748 15.7749 19.2801C15.7002 19.6855 15.6202 20.0908 15.5349 20.4961L14.2709 26.0001H12.0149ZM27.7718 26.1921C27.0464 26.1921 26.3904 26.0321 25.8038 25.7121C25.2171 25.3815 24.7531 24.9121 24.4118 24.3041C24.0704 23.6855 23.8998 22.9441 23.8998 22.0801C23.8998 21.2268 24.0704 20.4908 24.4118 19.8721C24.7638 19.2535 25.2171 18.7788 25.7718 18.4481C26.3264 18.1175 26.9078 17.9521 27.5158 17.9521C28.2304 17.9521 28.8278 18.1121 29.3078 18.4321C29.7878 18.7415 30.1504 19.1788 30.3958 19.7441C30.6411 20.2988 30.7638 20.9441 30.7638 21.6801C30.7638 22.0641 30.7371 22.3628 30.6838 22.5761H25.6918C25.7771 23.2695 26.0278 23.8081 26.4438 24.1921C26.8598 24.5761 27.3824 24.7681 28.0118 24.7681C28.3531 24.7681 28.6678 24.7201 28.9558 24.6241C29.2544 24.5175 29.5478 24.3735 29.8358 24.1921L30.4598 25.3441C30.0864 25.5895 29.6704 25.7921 29.2118 25.9521C28.7531 26.1121 28.2731 26.1921 27.7718 26.1921ZM25.6758 21.3281H29.1638C29.1638 20.7201 29.0304 20.2455 28.7638 19.9041C28.4971 19.5521 28.0971 19.3761 27.5638 19.3761C27.1051 19.3761 26.6944 19.5468 26.3318 19.8881C25.9798 20.2188 25.7611 20.6988 25.6758 21.3281Z" fill="#FAF2DA"/>
</svg>
