<svg width="41" height="41" viewBox="0 0 41 41" fill="none" xmlns="http://www.w3.org/2000/svg">
<circle cx="20.3732" cy="20.3732" r="19.8732" stroke="#FAF2DA"/>
<path d="M11.5149 25L9.43488 14.536H11.3389L12.2509 19.816C12.3362 20.3707 12.4215 20.9307 12.5069 21.496C12.6029 22.0507 12.6882 22.6053 12.7629 23.16H12.8269C12.9442 22.6053 13.0562 22.0507 13.1629 21.496C13.2802 20.9307 13.3975 20.3707 13.5149 19.816L14.7949 14.536H16.4109L17.6909 19.816C17.8082 20.36 17.9255 20.9147 18.0429 21.48C18.1602 22.0347 18.2775 22.5947 18.3949 23.16H18.4589C18.5442 22.5947 18.6295 22.0347 18.7149 21.48C18.8002 20.9253 18.8802 20.3707 18.9549 19.816L19.8669 14.536H21.6429L19.6429 25H17.3389L16.0429 19.496C15.9575 19.0907 15.8722 18.6853 15.7869 18.28C15.7122 17.8747 15.6429 17.4747 15.5789 17.08H15.5149C15.4402 17.4747 15.3602 17.8747 15.2749 18.28C15.2002 18.6853 15.1202 19.0907 15.0349 19.496L13.7709 25H11.5149ZM27.2718 25.192C26.5464 25.192 25.8904 25.032 25.3038 24.712C24.7171 24.3813 24.2531 23.912 23.9118 23.304C23.5704 22.6853 23.3998 21.944 23.3998 21.08C23.3998 20.2267 23.5704 19.4907 23.9118 18.872C24.2638 18.2533 24.7171 17.7787 25.2718 17.448C25.8264 17.1173 26.4078 16.952 27.0158 16.952C27.7304 16.952 28.3278 17.112 28.8078 17.432C29.2878 17.7413 29.6504 18.1787 29.8958 18.744C30.1411 19.2987 30.2638 19.944 30.2638 20.68C30.2638 21.064 30.2371 21.3627 30.1838 21.576H25.1918C25.2771 22.2693 25.5278 22.808 25.9438 23.192C26.3598 23.576 26.8824 23.768 27.5118 23.768C27.8531 23.768 28.1678 23.72 28.4558 23.624C28.7544 23.5173 29.0478 23.3733 29.3358 23.192L29.9598 24.344C29.5864 24.5893 29.1704 24.792 28.7118 24.952C28.2531 25.112 27.7731 25.192 27.2718 25.192ZM25.1758 20.328H28.6638C28.6638 19.72 28.5304 19.2453 28.2638 18.904C27.9971 18.552 27.5971 18.376 27.0638 18.376C26.6051 18.376 26.1944 18.5467 25.8318 18.888C25.4798 19.2187 25.2611 19.6987 25.1758 20.328Z" fill="#4A503D"/>
</svg>
